<svg width="20" height="20" viewBox="0 0 24 24" fill="none" xmlns="http://www.w3.org/2000/svg">
<path id="Union" fill-rule="evenodd" clip-rule="evenodd" d="M7.51837 4.8073C7.51837 3.16053 8.85334 1.82556 10.5001 1.82556C12.1469 1.82556 13.4819 3.16053 13.4819 4.8073V5.19241H7.51837V4.8073ZM5.69281 7.01797V8.70183C5.69281 9.20594 6.10147 9.6146 6.60559 9.6146C7.1097 9.6146 7.51837 9.20594 7.51837 8.70183V7.01797H13.4819V8.70183C13.4819 9.20594 13.8905 9.6146 14.3946 9.6146C14.8987 9.6146 15.3074 9.20594 15.3074 8.70183V7.01797H17.4438L18.6015 22.0687H2.39847L3.55622 7.01797H5.69281ZM5.69281 5.19241V4.8073C5.69281 2.1523 7.84511 0 10.5001 0C13.1551 0 15.3074 2.1523 15.3074 4.8073V5.19241H18.289C18.766 5.19241 19.1626 5.55963 19.1991 6.03518L20.4973 22.9114C20.5168 23.1649 20.4297 23.4151 20.2569 23.6016C20.0842 23.7882 19.8415 23.8942 19.5872 23.8942H1.41278C1.15853 23.8942 0.915805 23.7882 0.743055 23.6016C0.570306 23.4151 0.483191 23.1649 0.502691 22.9114L1.80087 6.03518C1.83745 5.55963 2.234 5.19241 2.71096 5.19241H5.69281Z" fill="#3734A9"/>
</svg>
