<svg width="20" height="20" viewBox="0 0 24 24" fill="none" xmlns="http://www.w3.org/2000/svg">
<g id="Icon/Help">
<path id="Vector" d="M12.75 22C18.2728 22 22.75 17.5228 22.75 12C22.75 6.47715 18.2728 2 12.75 2C7.22715 2 2.75 6.47715 2.75 12C2.75 17.5228 7.22715 22 12.75 22Z" stroke="#000000" stroke-width="1.5" stroke-linecap="round" stroke-linejoin="round"/>
<path id="Vector_2" d="M9.83984 9.00008C10.0749 8.33175 10.539 7.76819 11.1498 7.40921C11.7606 7.05024 12.4787 6.91902 13.177 7.03879C13.8753 7.15857 14.5087 7.52161 14.9649 8.06361C15.4212 8.60561 15.6709 9.2916 15.6698 10.0001C15.6698 12.0001 12.6698 13.0001 12.6698 13.0001" stroke="#000000" stroke-width="1.5" stroke-linecap="round" stroke-linejoin="round"/>
<path id="Vector 2" d="M12.75 16V16.5" stroke="#000000" stroke-width="1.5" stroke-linecap="round" stroke-linejoin="round"/>
</g>
</svg>
