<svg width="34" height="34" viewBox="0 0 34 34" fill="none" xmlns="http://www.w3.org/2000/svg">
<path d="M17 0C7.62605 0 0 7.62605 0 17C0 26.374 7.62605 34 17 34C26.374 34 34 26.374 34 17C34 7.62605 26.374 0 17 0ZM22.5852 17.9712L12.871 25.2569C12.6528 25.4211 12.3978 25.5 12.144 25.5C11.7741 25.5 11.41 25.3322 11.1717 25.0144C10.7685 24.4778 10.8776 23.7165 11.4148 23.3145L19.8329 17L11.4148 10.6855C10.8776 10.2835 10.7685 9.52218 11.1717 8.9856C11.5748 8.4496 12.335 8.33932 12.871 8.74309L22.5852 16.0288C22.8912 16.2577 23.0714 16.6176 23.0714 17C23.0714 17.3824 22.8912 17.7423 22.5852 17.9712Z" fill="black"/>
</svg>
