<svg xmlns="http://www.w3.org/2000/svg" width="16" height="16" viewBox="0 0 16 16" fill="none">
  <path fill-rule="evenodd" clip-rule="evenodd" d="M6.68442 11.9616C6.71937 12.0739 6.7381 12.1927 6.7381 12.3159C6.7381 12.9976 6.16247 13.5511 5.45353 13.5511C4.74442 13.5511 4.1688 12.9976 4.1688 12.3159C4.1688 12.1638 4.19745 12.0181 4.24986 11.8834C4.09309 11.8085 3.96386 11.6833 3.88815 11.5241C3.7616 11.2574 3.8085 10.9443 4.00809 10.7228L4.56829 10.1014C4.57773 10.091 4.58812 10.0814 4.59898 10.0729C4.50407 9.94778 4.43875 9.7996 4.41372 9.6372L4.01643 7.05185C4.01029 7.03657 4.00589 7.02037 4.00321 7.00342L3.50692 3.77347C3.46694 3.51375 3.23508 3.32124 2.96198 3.32124H2.13845C2.00812 3.32124 1.90234 3.21953 1.90234 3.09421C1.90234 2.96889 2.00812 2.86719 2.13845 2.86719H2.96198C3.4693 2.86719 3.89995 3.22467 3.97409 3.70718L4.05232 4.21586H12.8139C13.1452 4.21586 13.4561 4.37024 13.648 4.62995C13.8398 4.88952 13.8891 5.22249 13.78 5.52337L12.2239 9.81716C12.0807 10.2123 11.6932 10.4772 11.2578 10.4772H5.42598C5.2552 10.4772 5.09323 10.4368 4.95062 10.3646C4.94322 10.3765 4.93472 10.3881 4.92512 10.3988L4.36492 11.0202C4.28638 11.1073 4.26796 11.2305 4.3177 11.3355C4.35328 11.4103 4.41876 11.4658 4.49683 11.4917C4.73215 11.2394 5.07371 11.0806 5.45353 11.0806C5.84121 11.0806 6.18907 11.2462 6.42471 11.5076H10.5515C10.7871 11.2462 11.135 11.0806 11.5227 11.0806C12.2318 11.0806 12.8074 11.6341 12.8074 12.3159C12.8074 12.9976 12.2318 13.5511 11.5227 13.5511C10.8137 13.5511 10.2381 12.9976 10.2381 12.3159C10.2381 12.1927 10.2569 12.0739 10.2918 11.9616H6.68442ZM11.5227 11.5347C11.0744 11.5347 10.7103 11.8847 10.7103 12.3159C10.7103 12.747 11.0744 13.0971 11.5227 13.0971C11.9711 13.0971 12.3352 12.747 12.3352 12.3159C12.3352 11.8847 11.9711 11.5347 11.5227 11.5347ZM5.45353 11.5347C5.00508 11.5347 4.64101 11.8847 4.64101 12.3159C4.64101 12.747 5.00508 13.0971 5.45353 13.0971C5.90181 13.0971 6.26589 12.747 6.26589 12.3159C6.26589 11.8847 5.90181 11.5347 5.45353 11.5347ZM13.3341 5.37399C13.3928 5.21205 13.3664 5.03269 13.2629 4.89285C13.1597 4.753 12.9922 4.66991 12.8139 4.66991H4.12772L4.88089 9.57091C4.92087 9.83063 5.15273 10.0232 5.42598 10.0232H11.2578C11.4923 10.0232 11.701 9.88058 11.7782 9.66778L13.3341 5.37399Z" fill="black"/>
</svg>