<svg width="79" height="48" viewBox="0 0 79 57" fill="none" xmlns="http://www.w3.org/2000/svg">
<g id="Group 1000001988">
<path id="Vector" d="M47.0511 0H3.08381C1.74409 0 0.647949 1.31731 0.647949 2.92736V9.36754C0.647949 9.95301 1.01333 10.3921 1.5005 10.3921H30.7308C32.0705 10.3921 33.0449 11.7094 33.0449 13.1731C33.0449 13.9049 32.8013 14.6368 32.3141 15.2222C31.9487 15.6614 31.3398 16.1005 30.609 16.1005H1.5005C1.01333 16.1005 0.647949 16.5396 0.647949 17.125V20.6379C0.647949 21.2233 1.01333 21.6624 1.5005 21.6624H20.9874C22.3271 21.6624 23.3014 22.9797 23.3014 24.4434C23.3014 25.1753 23.0578 25.9071 22.5707 26.4926C22.2053 27.078 21.5963 27.3708 20.8656 27.3708H1.5005C1.01333 27.3708 0.647949 27.8099 0.647949 28.3953V43.9103C0.647949 45.5204 1.74409 46.8377 3.08381 46.8377H10.2696C10.2696 52.3997 14.0452 56.9371 18.7951 56.9371C23.4232 56.9371 27.1988 52.3997 27.1988 46.8377H49.4869V2.92736C49.4869 1.31731 48.3908 0 47.0511 0ZM18.7951 51.2287C16.7246 51.2287 15.0195 49.1796 15.0195 46.6913H22.5707C22.5707 49.1796 20.8656 51.2287 18.7951 51.2287Z" fill="#CFB9F0"/>
<path id="Vector_2" d="M77.9864 28.2491L70.4353 14.3442C69.9481 13.466 69.2173 13.0269 68.3648 13.0269H54.2368V46.5451H56.6727C56.6727 52.107 60.4483 56.6444 65.0764 56.6444C69.7045 56.6444 73.4801 52.107 73.4801 46.5451H75.916C77.2557 46.5451 78.3518 45.2278 78.3518 43.6177V29.7128C78.3518 29.2737 78.23 28.8346 77.9864 28.2491ZM65.0764 51.2288C63.0059 51.2288 61.3008 49.1797 61.3008 46.6914H68.852C68.852 49.1797 67.1469 51.2288 65.0764 51.2288Z" fill="#CFB9F0"/>
</g>
</svg>
