<svg width="18" height="18" viewBox="0 0 18 18" fill="none" xmlns="http://www.w3.org/2000/svg">
<g clip-path="url(#clip0_268_5237)">
<path d="M17.6095 9.29658C17.6095 4.60323 13.8048 0.798462 9.1114 0.798462C4.41805 0.798462 0.613281 4.60316 0.613281 9.29658C0.613281 13.5382 3.72094 17.054 7.78357 17.6915V11.7531H5.62584V9.29658H7.78357V7.42434C7.78357 5.2945 9.05231 4.11804 10.9934 4.11804C11.9232 4.11804 12.8957 4.28402 12.8957 4.28402V6.37535H11.8242C10.7684 6.37535 10.4392 7.03044 10.4392 7.70252V9.29658H12.7961L12.4194 11.7531H10.4392V17.6915C14.5019 17.054 17.6095 13.5383 17.6095 9.29658Z" fill="#1877F2"/>
<path d="M12.4185 11.7531L12.7953 9.29658H10.4384V7.70252C10.4384 7.03037 10.7676 6.37535 11.8233 6.37535H12.8949V4.28402C12.8949 4.28402 11.9224 4.11804 10.9926 4.11804C9.05147 4.11804 7.78273 5.2945 7.78273 7.42434V9.29658H5.625V11.7531H7.78273V17.6915C8.22198 17.7603 8.66594 17.7948 9.11056 17.7947C9.55518 17.7948 9.99913 17.7603 10.4384 17.6915V11.7531H12.4185Z" fill="white"/>
</g>
<defs>
<clipPath id="clip0_268_5237">
<rect width="16.9962" height="16.9962" fill="white" transform="translate(0.613281 0.798462)"/>
</clipPath>
</defs>
</svg>
