<svg xmlns="http://www.w3.org/2000/svg" width="17" height="17" viewBox="0 0 17 17" fill="none">
  <path d="M12.0903 1.95215C10.9223 1.95215 9.80136 2.49584 9.06972 3.35502C8.33808 2.49584 7.21713 1.95215 6.04919 1.95215C3.9818 1.95215 2.35742 3.57652 2.35742 5.64391C2.35742 8.18116 4.6396 10.2486 8.09644 13.3899L9.06972 14.2692L10.043 13.3832C13.4998 10.2486 15.782 8.18116 15.782 5.64391C15.782 3.57652 14.1576 1.95215 12.0903 1.95215ZM9.13684 12.3898L9.06972 12.4569L9.0026 12.3898C5.80754 9.49677 3.69988 7.58377 3.69988 5.64391C3.69988 4.30145 4.70673 3.29461 6.04919 3.29461C7.08288 3.29461 8.08973 3.95913 8.44548 4.87871H9.70068C10.0497 3.95913 11.0566 3.29461 12.0903 3.29461C13.4327 3.29461 14.4396 4.30145 14.4396 5.64391C14.4396 7.58377 12.3319 9.49677 9.13684 12.3898Z" fill="#E49800"/>
</svg>