<svg width="17" height="18" viewBox="0 0 17 18" fill="none" xmlns="http://www.w3.org/2000/svg">
<g clip-path="url(#clip0_268_3169)">
<path d="M12.9461 0.620239H4.22872C2.10468 0.620239 0.382812 2.34211 0.382812 4.46615V13.1835C0.382812 15.3076 2.10468 17.0295 4.22872 17.0295H12.9461C15.0702 17.0295 16.792 15.3076 16.792 13.1835V4.46615C16.792 2.34211 15.0702 0.620239 12.9461 0.620239Z" fill="url(#paint0_radial_268_3169)"/>
<path d="M12.9461 0.620239H4.22872C2.10468 0.620239 0.382812 2.34211 0.382812 4.46615V13.1835C0.382812 15.3076 2.10468 17.0295 4.22872 17.0295H12.9461C15.0702 17.0295 16.792 15.3076 16.792 13.1835V4.46615C16.792 2.34211 15.0702 0.620239 12.9461 0.620239Z" fill="url(#paint1_radial_268_3169)"/>
<path d="M8.58816 2.41504C6.84737 2.41504 6.62886 2.42267 5.94519 2.45375C5.26279 2.48503 4.79699 2.59304 4.38945 2.75156C3.96781 2.91526 3.61021 3.13429 3.25395 3.49068C2.89737 3.847 2.67834 4.2046 2.51412 4.62605C2.35516 5.03372 2.24702 5.49971 2.21632 6.18179C2.18575 6.86553 2.17773 7.0841 2.17773 8.82495C2.17773 10.5658 2.18543 10.7836 2.21645 11.4673C2.24786 12.1497 2.35586 12.6155 2.51425 13.023C2.67809 13.4447 2.89711 13.8023 3.2535 14.1585C3.60969 14.5151 3.9673 14.7346 4.38862 14.8983C4.79648 15.0569 5.26235 15.1649 5.94461 15.1961C6.62835 15.2272 6.84667 15.2349 8.58739 15.2349C10.3284 15.2349 10.5462 15.2272 11.2299 15.1961C11.9122 15.1649 12.3786 15.0569 12.7864 14.8983C13.2079 14.7346 13.565 14.5151 13.9211 14.1585C14.2777 13.8023 14.4966 13.4447 14.6609 13.0232C14.8185 12.6155 14.9267 12.1495 14.9587 11.4674C14.9894 10.7837 14.9974 10.5658 14.9974 8.82495C14.9974 7.0841 14.9894 6.86565 14.9587 6.18192C14.9267 5.49952 14.8185 5.03378 14.6609 4.62624C14.4966 4.2046 14.2777 3.847 13.9211 3.49068C13.5646 3.13416 13.208 2.91514 12.786 2.75162C12.3774 2.59304 11.9113 2.48497 11.229 2.45375C10.5452 2.42267 10.3275 2.41504 8.58617 2.41504H8.58816ZM8.01313 3.57016C8.18383 3.5699 8.37426 3.57016 8.58816 3.57016C10.2997 3.57016 10.5025 3.57631 11.1783 3.60701C11.8033 3.6356 12.1425 3.74002 12.3684 3.82777C12.6676 3.94392 12.8808 4.08282 13.1051 4.30723C13.3294 4.53157 13.4682 4.74521 13.5847 5.04436C13.6725 5.26999 13.777 5.6092 13.8055 6.23416C13.8362 6.90988 13.8428 7.11282 13.8428 8.82348C13.8428 10.5341 13.8362 10.7371 13.8055 11.4128C13.7769 12.0378 13.6725 12.377 13.5847 12.6027C13.4686 12.9018 13.3294 13.1148 13.1051 13.339C12.8807 13.5634 12.6677 13.7022 12.3684 13.8184C12.1427 13.9066 11.8033 14.0107 11.1783 14.0393C10.5026 14.07 10.2997 14.0767 8.58816 14.0767C6.8766 14.0767 6.67373 14.07 5.99807 14.0393C5.37311 14.0105 5.0339 13.906 4.80776 13.8183C4.50868 13.7021 4.29497 13.5632 4.07063 13.3389C3.84628 13.1146 3.70744 12.9014 3.59098 12.6021C3.50323 12.3765 3.39868 12.0372 3.37022 11.4123C3.33952 10.7366 3.33337 10.5336 3.33337 8.82188C3.33337 7.11019 3.33952 6.90828 3.37022 6.23255C3.39881 5.60759 3.50323 5.26838 3.59098 5.04244C3.70719 4.74329 3.84628 4.52965 4.07069 4.3053C4.29504 4.08096 4.50868 3.94206 4.80782 3.82565C5.03377 3.73752 5.37311 3.63336 5.99807 3.60464C6.58938 3.57791 6.81853 3.5699 8.01313 3.56856V3.57016ZM12.0097 4.63445C11.5851 4.63445 11.2406 4.97866 11.2406 5.40338C11.2406 5.82803 11.5851 6.17256 12.0097 6.17256C12.4344 6.17256 12.7789 5.82803 12.7789 5.40338C12.7789 4.97872 12.4344 4.63419 12.0097 4.63419V4.63445ZM8.58816 5.53317C6.77033 5.53317 5.29645 7.00706 5.29645 8.82495C5.29645 10.6429 6.77033 12.116 8.58816 12.116C10.4061 12.116 11.8794 10.6429 11.8794 8.82495C11.8794 7.00712 10.4059 5.53317 8.58803 5.53317H8.58816ZM8.58816 6.68829C9.76815 6.68829 10.7248 7.64484 10.7248 8.82495C10.7248 10.0049 9.76815 10.9616 8.58816 10.9616C7.40811 10.9616 6.45157 10.0049 6.45157 8.82495C6.45157 7.64484 7.40811 6.68829 8.58816 6.68829Z" fill="white"/>
</g>
<defs>
<radialGradient id="paint0_radial_268_3169" cx="0" cy="0" r="1" gradientUnits="userSpaceOnUse" gradientTransform="translate(4.74151 18.2933) rotate(-90) scale(16.2627 15.1256)">
<stop stop-color="#FFDD55"/>
<stop offset="0.1" stop-color="#FFDD55"/>
<stop offset="0.5" stop-color="#FF543E"/>
<stop offset="1" stop-color="#C837AB"/>
</radialGradient>
<radialGradient id="paint1_radial_268_3169" cx="0" cy="0" r="1" gradientUnits="userSpaceOnUse" gradientTransform="translate(-2.36579 1.80228) rotate(78.681) scale(7.26954 29.9653)">
<stop stop-color="#3771C8"/>
<stop offset="0.128" stop-color="#3771C8"/>
<stop offset="1" stop-color="#6600FF" stop-opacity="0"/>
</radialGradient>
<clipPath id="clip0_268_3169">
<rect width="16.4092" height="16.4092" fill="white" transform="translate(0.384766 0.620361)"/>
</clipPath>
</defs>
</svg>
