<svg xmlns="http://www.w3.org/2000/svg" width="16" height="16" viewBox="0 0 16 16" fill="none">
  <path fill-rule="evenodd" clip-rule="evenodd" d="M6.68442 11.32C6.71937 11.4323 6.7381 11.5511 6.7381 11.6743C6.7381 12.356 6.16247 12.9095 5.45353 12.9095C4.74442 12.9095 4.1688 12.356 4.1688 11.6743C4.1688 11.5222 4.19745 11.3765 4.24986 11.2418C4.09309 11.1669 3.96386 11.0417 3.88815 10.8825C3.7616 10.6158 3.8085 10.3027 4.00809 10.0812L4.56829 9.45979C4.57773 9.44935 4.58812 9.43982 4.59898 9.43134C4.50407 9.30617 4.43875 9.158 4.41372 8.9956L4.01643 6.41025C4.01029 6.39496 4.00589 6.37877 4.00321 6.36182L3.50692 3.13186C3.46694 2.87215 3.23508 2.67963 2.96198 2.67963H2.13845C2.00812 2.67963 1.90234 2.57793 1.90234 2.45261C1.90234 2.32729 2.00812 2.22559 2.13845 2.22559H2.96198C3.4693 2.22559 3.89995 2.58307 3.97409 3.06557L4.05232 3.57425H12.8139C13.1452 3.57425 13.4561 3.72864 13.648 3.98835C13.8398 4.24792 13.8891 4.58089 13.78 4.88177L12.2239 9.17556C12.0807 9.57073 11.6932 9.8356 11.2578 9.8356H5.42598C5.2552 9.8356 5.09323 9.79519 4.95062 9.72299C4.94322 9.73495 4.93472 9.74645 4.92512 9.7572L4.36492 10.3786C4.28638 10.4657 4.26796 10.5889 4.3177 10.6939C4.35328 10.7687 4.41876 10.8242 4.49683 10.8501C4.73215 10.5978 5.07371 10.439 5.45353 10.439C5.84121 10.439 6.18907 10.6046 6.42471 10.866H10.5515C10.7871 10.6046 11.135 10.439 11.5227 10.439C12.2318 10.439 12.8074 10.9925 12.8074 11.6743C12.8074 12.356 12.2318 12.9095 11.5227 12.9095C10.8137 12.9095 10.2381 12.356 10.2381 11.6743C10.2381 11.5511 10.2569 11.4323 10.2918 11.32H6.68442ZM11.5227 10.8931C11.0744 10.8931 10.7103 11.2431 10.7103 11.6743C10.7103 12.1054 11.0744 12.4555 11.5227 12.4555C11.9711 12.4555 12.3352 12.1054 12.3352 11.6743C12.3352 11.2431 11.9711 10.8931 11.5227 10.8931ZM5.45353 10.8931C5.00508 10.8931 4.64101 11.2431 4.64101 11.6743C4.64101 12.1054 5.00508 12.4555 5.45353 12.4555C5.90181 12.4555 6.26589 12.1054 6.26589 11.6743C6.26589 11.2431 5.90181 10.8931 5.45353 10.8931ZM13.3341 4.73239C13.3928 4.57044 13.3664 4.39109 13.2629 4.25125C13.1597 4.1114 12.9922 4.0283 12.8139 4.0283H4.12772L4.88089 8.92931C4.92087 9.18903 5.15273 9.38155 5.42598 9.38155H11.2578C11.4923 9.38155 11.701 9.23897 11.7782 9.02618L13.3341 4.73239Z" fill="black"/>
</svg>
