<svg width="57" height="52" viewBox="0 0 56 48" fill="none" xmlns="http://www.w3.org/2000/svg">
<g id="Group">
<path id="Vector" d="M6.00585 -0.00146484C2.70451 -0.00146484 -0.00585182 2.69329 -0.00585938 5.99471V41.9867C-0.0058367 45.2881 2.70453 47.9986 6.00585 47.9986H50.0176C53.3189 47.9986 56.0098 45.3037 56.0098 42.0024V6.01016C56.0097 2.70882 53.3189 -0.00146484 50.0176 -0.00146484H6.00585ZM16.0098 10.0063C19.3116 10.0063 22.0058 12.6967 22.0058 15.9986C22.0058 19.3004 19.3116 22.0102 16.0098 22.0102C12.7079 22.0102 10.0019 19.3004 10.0019 15.9986C10.0019 12.6967 12.7079 10.0063 16.0098 10.0063ZM31.0098 11.9985H35.0137C35.2775 12.0016 35.5295 12.1089 35.7146 12.297C35.8997 12.485 36.003 12.7386 36.002 13.0024C36.003 13.2663 35.8997 13.5198 35.7146 13.7079C35.5295 13.8959 35.2775 14.0033 35.0137 14.0064H31.0098C30.8778 14.0069 30.747 13.9812 30.625 13.9309C30.5029 13.8807 30.3921 13.8067 30.2987 13.7134C30.2054 13.6201 30.1315 13.5092 30.0812 13.3872C30.0309 13.2652 30.0053 13.1344 30.0058 13.0024C30.0053 12.8704 30.0309 12.7397 30.0812 12.6176C30.1315 12.4956 30.2054 12.3848 30.2987 12.2915C30.3921 12.1981 30.5029 12.1242 30.625 12.0739C30.747 12.0237 30.8778 11.998 31.0098 11.9985ZM39.0137 11.9985H51.0019C51.1339 11.998 51.2647 12.0237 51.3867 12.0739C51.5088 12.1242 51.6197 12.1981 51.713 12.2915C51.8063 12.3848 51.8802 12.4956 51.9305 12.6176C51.9808 12.7397 52.0064 12.8704 52.0059 13.0024C52.0064 13.1344 51.9808 13.2652 51.9305 13.3872C51.8802 13.5092 51.8063 13.6201 51.713 13.7134C51.6197 13.8067 51.5088 13.8807 51.3867 13.9309C51.2647 13.9812 51.1339 14.0069 51.0019 14.0064H39.0137C38.8817 14.0069 38.7509 13.9812 38.6289 13.9309C38.5069 13.8807 38.396 13.8067 38.3027 13.7134C38.2093 13.6201 38.1354 13.5092 38.0851 13.3872C38.0349 13.2652 38.0093 13.1344 38.0098 13.0024C38.0093 12.8704 38.0349 12.7397 38.0851 12.6176C38.1354 12.4956 38.2093 12.3848 38.3027 12.2915C38.396 12.1981 38.5069 12.1242 38.6289 12.0739C38.7509 12.0237 38.8817 11.998 39.0137 11.9985ZM31.0098 18.0064H45.0059C45.2704 18.0054 45.5246 18.1091 45.7127 18.295C45.9009 18.481 46.0077 18.7341 46.0098 18.9986C46.0103 19.1306 45.9847 19.2613 45.9344 19.3834C45.8841 19.5054 45.8102 19.6162 45.7169 19.7096C45.6236 19.8029 45.5127 19.8768 45.3906 19.9271C45.2686 19.9774 45.1378 20.0028 45.0059 20.0023H31.0098C30.8778 20.0028 30.747 19.9774 30.625 19.9271C30.5029 19.8768 30.3921 19.8029 30.2987 19.7096C30.2054 19.6162 30.1315 19.5054 30.0812 19.3834C30.0309 19.2613 30.0053 19.1306 30.0058 18.9986C30.0079 18.7341 30.1147 18.481 30.3029 18.295C30.4911 18.1091 30.7452 18.0054 31.0098 18.0064ZM49.0098 18.0064H51.0019C51.2665 18.0054 51.5207 18.1091 51.7088 18.295C51.897 18.481 52.0038 18.7341 52.0059 18.9986C52.0064 19.1306 51.9808 19.2613 51.9305 19.3834C51.8802 19.5054 51.8063 19.6162 51.713 19.7096C51.6197 19.8029 51.5088 19.8768 51.3867 19.9271C51.2647 19.9774 51.1339 20.0028 51.0019 20.0023H49.0098C48.8775 20.0033 48.7463 19.9783 48.6238 19.9283C48.5013 19.8782 48.3899 19.8043 48.2962 19.711C48.2025 19.6176 48.1282 19.5066 48.0777 19.3843C48.0272 19.262 48.0014 19.1309 48.0019 18.9986C48.003 18.8673 48.0299 18.7373 48.0811 18.6164C48.1323 18.4954 48.2068 18.3858 48.3004 18.2936C48.394 18.2015 48.5048 18.1289 48.6265 18.0796C48.7482 18.0303 48.8784 18.0054 49.0098 18.0064ZM16.0098 24.0024C22.6253 24.0024 27.998 29.3909 27.998 36.0065V37.0102C28.0008 37.1466 27.9756 37.2822 27.924 37.4086C27.8922 37.4765 27.8529 37.5407 27.8068 37.5998C27.7606 37.6644 27.7068 37.7235 27.6466 37.7754C27.4666 37.9212 27.2416 37.9999 27.0099 37.9982H5.01385C4.75004 37.9992 4.49651 37.896 4.30848 37.711C4.12045 37.526 4.01314 37.274 4.00995 37.0102V36.0065C4.00994 29.3909 9.39419 24.0024 16.0098 24.0024ZM31.0098 24.0024H35.0137C35.2775 24.0055 35.5295 24.1128 35.7146 24.3009C35.8997 24.4889 36.003 24.7424 36.002 25.0063C36.003 25.2702 35.8997 25.5239 35.7146 25.712C35.5295 25.9 35.2775 26.0072 35.0137 26.0102H31.0098C30.8778 26.0108 30.747 25.9851 30.625 25.9348C30.5029 25.8845 30.3921 25.8108 30.2987 25.7175C30.2054 25.6242 30.1315 25.5131 30.0812 25.3911C30.0309 25.2691 30.0053 25.1383 30.0058 25.0063C30.0053 24.8743 30.0309 24.7436 30.0812 24.6215C30.1315 24.4995 30.2054 24.3887 30.2987 24.2953C30.3921 24.202 30.5029 24.1281 30.625 24.0778C30.747 24.0275 30.8778 24.0019 31.0098 24.0024ZM39.0137 24.0024H51.0019C51.1339 24.0018 51.2647 24.0275 51.3867 24.0778C51.5088 24.1281 51.6197 24.202 51.713 24.2953C51.8063 24.3887 51.8802 24.4995 51.9305 24.6215C51.9808 24.7436 52.0064 24.8743 52.0059 25.0063C52.0064 25.1383 51.9808 25.2691 51.9305 25.3911C51.8802 25.5131 51.8063 25.6242 51.713 25.7175C51.6197 25.8108 51.5088 25.8845 51.3867 25.9348C51.2647 25.9851 51.1339 26.0108 51.0019 26.0102H39.0137C38.8817 26.0108 38.7509 25.9851 38.6289 25.9348C38.5069 25.8845 38.396 25.8108 38.3027 25.7175C38.2093 25.6242 38.1354 25.5131 38.0851 25.3911C38.0349 25.2691 38.0093 25.1383 38.0098 25.0063C38.0093 24.8743 38.0349 24.7436 38.0851 24.6215C38.1354 24.4995 38.2093 24.3887 38.3027 24.2953C38.396 24.202 38.5069 24.1281 38.6289 24.0778C38.7509 24.0275 38.8817 24.0019 39.0137 24.0024ZM31.0098 29.9946H45.0059C45.1378 29.9941 45.2686 30.0198 45.3906 30.07C45.5127 30.1203 45.6235 30.1943 45.7169 30.2876C45.8102 30.3809 45.8841 30.4917 45.9344 30.6138C45.9847 30.7358 46.0103 30.8666 46.0098 30.9986C46.0103 31.1305 45.9847 31.2613 45.9344 31.3833C45.8841 31.5054 45.8102 31.6162 45.7169 31.7095C45.6236 31.8028 45.5127 31.8768 45.3906 31.9271C45.2686 31.9773 45.1378 32.003 45.0059 32.0025H31.0098C30.8778 32.003 30.747 31.9773 30.625 31.9271C30.5029 31.8768 30.3921 31.8028 30.2987 31.7095C30.2054 31.6162 30.1315 31.5054 30.0812 31.3833C30.0309 31.2613 30.0053 31.1305 30.0058 30.9986C30.0053 30.8666 30.031 30.7358 30.0812 30.6138C30.1315 30.4917 30.2054 30.3809 30.2988 30.2876C30.3921 30.1943 30.5029 30.1203 30.625 30.07C30.747 30.0198 30.8778 29.9941 31.0098 29.9946ZM49.0098 29.9946H51.0019C51.1339 29.9941 51.2647 30.0198 51.3867 30.07C51.5088 30.1203 51.6196 30.1943 51.7129 30.2876C51.8063 30.3809 51.8802 30.4917 51.9305 30.6138C51.9808 30.7358 52.0064 30.8666 52.0059 30.9986C52.0064 31.1305 51.9808 31.2613 51.9305 31.3833C51.8802 31.5054 51.8063 31.6162 51.713 31.7095C51.6197 31.8028 51.5088 31.8768 51.3867 31.9271C51.2647 31.9773 51.1339 32.003 51.0019 32.0025H49.0098C48.8775 32.0035 48.7463 31.9782 48.6238 31.9282C48.5013 31.8782 48.3899 31.8043 48.2962 31.7109C48.2025 31.6175 48.1282 31.5065 48.0777 31.3843C48.0272 31.262 48.0014 31.1309 48.0019 30.9986C48.0014 30.8662 48.0272 30.7351 48.0777 30.6129C48.1282 30.4906 48.2025 30.3796 48.2962 30.2862C48.39 30.1928 48.5013 30.1189 48.6238 30.0689C48.7463 30.0189 48.8775 29.9936 49.0098 29.9946ZM31.0098 36.0065H35.0137C35.2775 36.0096 35.5295 36.1167 35.7146 36.3047C35.8997 36.4928 36.003 36.7463 36.002 37.0102C35.9989 37.2713 35.8938 37.521 35.7091 37.7057C35.5245 37.8904 35.2748 37.9956 35.0137 37.9987H31.0098C30.7459 37.9997 30.4923 37.8963 30.3043 37.7112C30.1162 37.5261 30.0089 37.274 30.0058 37.0102C30.0053 36.8782 30.0309 36.7474 30.0812 36.6254C30.1315 36.5034 30.2054 36.3925 30.2987 36.2992C30.3921 36.2059 30.5029 36.1319 30.625 36.0817C30.747 36.0314 30.8778 36.006 31.0098 36.0065ZM39.0137 36.0065H51.0019C51.1339 36.006 51.2647 36.0314 51.3867 36.0817C51.5088 36.1319 51.6197 36.2059 51.713 36.2992C51.8063 36.3925 51.8802 36.5034 51.9305 36.6254C51.9808 36.7474 52.0064 36.8782 52.0059 37.0102C52.0028 37.274 51.8955 37.5261 51.7075 37.7112C51.5194 37.8963 51.2658 37.9997 51.0019 37.9987H39.0137C38.7498 37.9997 38.4962 37.8963 38.3082 37.7112C38.1201 37.5261 38.0129 37.274 38.0098 37.0102C38.0093 36.8782 38.0349 36.7474 38.0851 36.6254C38.1354 36.5034 38.2093 36.3925 38.3027 36.2992C38.396 36.2059 38.5069 36.1319 38.6289 36.0817C38.7509 36.0314 38.8817 36.006 39.0137 36.0065Z" fill="#CFB9F0"/>
</g>
</svg>
