<svg xmlns="http://www.w3.org/2000/svg" width="10" height="10" viewBox="0 0 10 10" fill="none">
  <path d="M8.77532 5.36959H8.07533V3.9696H8.77532C8.86815 3.9696 8.95717 3.93272 9.02281 3.86709C9.08844 3.80145 9.12532 3.71243 9.12532 3.6196C9.12532 3.52678 9.08844 3.43775 9.02281 3.37212C8.95717 3.30648 8.86815 3.2696 8.77532 3.2696H8.07533V0.469626C8.07533 0.376801 8.03845 0.287778 7.97282 0.222141C7.90718 0.156503 7.81816 0.119629 7.72533 0.119629C7.6325 0.119629 7.54348 0.156503 7.47784 0.222141C7.41221 0.287778 7.37533 0.376801 7.37533 0.469626V3.2696H3.96286L1.70538 0.259628C1.6613 0.200861 1.59985 0.157452 1.52974 0.135549C1.45962 0.113646 1.38439 0.11436 1.3147 0.13759C1.24501 0.160819 1.1844 0.205387 1.14145 0.264979C1.0985 0.324572 1.07538 0.396168 1.07538 0.469626V3.2696H0.375388C0.282563 3.2696 0.19354 3.30648 0.127902 3.37212C0.0622652 3.43775 0.0253906 3.52678 0.0253906 3.6196C0.0253906 3.71243 0.0622652 3.80145 0.127902 3.86709C0.19354 3.93272 0.282563 3.9696 0.375388 3.9696H1.07538V5.36959H0.375388C0.282563 5.36959 0.19354 5.40646 0.127902 5.4721C0.0622652 5.53774 0.0253906 5.62676 0.0253906 5.71959C0.0253906 5.81241 0.0622652 5.90143 0.127902 5.96707C0.19354 6.03271 0.282563 6.06958 0.375388 6.06958H1.07538V8.86956C1.07538 8.96239 1.11226 9.05141 1.17789 9.11705C1.24353 9.18268 1.33255 9.21956 1.42538 9.21956C1.5182 9.21956 1.60723 9.18268 1.67287 9.11705C1.7385 9.05141 1.77538 8.96239 1.77538 8.86956V6.06958H5.18785L7.44533 9.07956C7.47793 9.12303 7.52021 9.15831 7.56881 9.18261C7.61741 9.20691 7.67099 9.21956 7.72533 9.21956C7.7629 9.21977 7.80026 9.21386 7.83593 9.20206C7.90571 9.17882 7.96639 9.13419 8.00937 9.0745C8.05234 9.01481 8.07542 8.94311 8.07533 8.86956V6.06958H8.77532C8.86815 6.06958 8.95717 6.03271 9.02281 5.96707C9.08844 5.90143 9.12532 5.81241 9.12532 5.71959C9.12532 5.62676 9.08844 5.53774 9.02281 5.4721C8.95717 5.40646 8.86815 5.36959 8.77532 5.36959ZM1.77538 1.51962L3.08787 3.2696H1.77538V1.51962ZM1.77538 5.36959V3.9696H3.61286L4.66285 5.36959H1.77538ZM7.37533 7.81957L6.06284 6.06958H7.37533V7.81957ZM7.37533 5.36959H5.53785L4.48786 3.9696H7.37533V5.36959Z" fill="black"/>
</svg>