<svg width="50" height="50" viewBox="0 0 50 50" fill="none" xmlns="http://www.w3.org/2000/svg">
<g id="2891214031638194523 1">
<path id="Vector" d="M40.8571 26.9042C40.3861 26.4333 39.7474 26.1688 39.0814 26.1688C38.4153 26.1688 37.7766 26.4333 37.3056 26.9042L34.937 29.2727C34.932 29.2727 34.9303 29.2836 34.9261 29.2878L33.754 30.4541C33.3665 30.844 32.9058 31.1535 32.3984 31.3646C31.8908 31.5758 31.3465 31.6846 30.7969 31.6846C30.2473 31.6846 29.703 31.5758 29.1954 31.3646C28.6879 31.1535 28.2273 30.844 27.8398 30.4541L19.5511 22.1654C19.1612 21.7779 18.8516 21.317 18.6405 20.8094C18.4292 20.3017 18.3206 19.7573 18.3206 19.2075C18.3206 18.6577 18.4292 18.1133 18.6405 17.6056C18.8516 17.098 19.1612 16.6371 19.5511 16.2495L20.7183 15.0774L20.7291 15.0707L23.0977 12.703C23.3309 12.4697 23.516 12.1929 23.6422 11.8881C23.7685 11.5834 23.8335 11.2567 23.8335 10.9268C23.8335 10.5969 23.7685 10.2702 23.6422 9.96547C23.516 9.66072 23.3309 9.38385 23.0977 9.15059L15.9912 2.03994C15.5127 1.58306 14.8766 1.32812 14.215 1.32812C13.5534 1.32812 12.9173 1.58306 12.4388 2.03994L10.0711 4.40765L10.0653 4.41686C7.24536 7.2422 5.5918 11.0251 5.43327 15.0137C5.27474 19.0023 6.62283 22.9045 9.2096 25.9447V28.8625C9.08904 28.9102 8.97266 28.9588 8.8588 29.0082L6.63677 26.7861C6.47681 26.6348 6.26501 26.5506 6.04485 26.5506C5.82469 26.5506 5.61288 26.6348 5.45292 26.7861L1.90304 30.336C1.74608 30.493 1.6579 30.7059 1.6579 30.9279C1.6579 31.15 1.74608 31.3629 1.90304 31.5199L4.12506 33.7419C4.07483 33.8558 4.02711 33.9721 3.97938 34.0927H0.837236C0.615184 34.0927 0.402233 34.1809 0.245218 34.3379C0.0882113 34.4949 0 34.7079 0 34.9299V39.9534C0 40.1754 0.0882113 40.3884 0.245218 40.5454C0.402233 40.7023 0.615184 40.7906 0.837236 40.7906H3.97938C4.02711 40.9112 4.07483 41.0275 4.12506 41.1406L1.90304 43.3634C1.74608 43.5204 1.6579 43.7333 1.6579 43.9553C1.6579 44.1774 1.74608 44.3903 1.90304 44.5473L5.45292 48.0972C5.60993 48.2541 5.82284 48.3423 6.04485 48.3423C6.26685 48.3423 6.47976 48.2541 6.63677 48.0972L8.8588 45.8751C8.97266 45.9245 9.08904 45.9731 9.2096 46.0208V49.163C9.2096 49.385 9.29784 49.598 9.45483 49.755C9.61181 49.9119 9.8248 50.0002 10.0468 50.0002H15.0703C15.2923 50.0002 15.5053 49.9119 15.6623 49.755C15.8192 49.598 15.9075 49.385 15.9075 49.163V46.0208C16.0281 45.9731 16.1444 45.9245 16.2583 45.8751L18.4803 48.0972C18.6403 48.2484 18.8521 48.3327 19.0722 48.3327C19.2924 48.3327 19.5042 48.2484 19.6642 48.0972L23.2141 44.5473C23.371 44.3903 23.4592 44.1774 23.4592 43.9553C23.4592 43.7333 23.371 43.5204 23.2141 43.3634L20.992 41.1406C21.0423 41.0275 21.09 40.9112 21.1377 40.7906H24.0546C27.0927 43.3817 30.9956 44.7326 34.9853 44.5741C38.9751 44.4157 42.7587 42.7596 45.5817 39.9358L45.5925 39.9291L47.9602 37.5605C48.1935 37.3273 48.3786 37.0504 48.5048 36.7457C48.631 36.4409 48.6961 36.1142 48.6961 35.7843C48.6961 35.4545 48.631 35.1278 48.5048 34.823C48.3786 34.5183 48.1935 34.2414 47.9602 34.0081L40.8571 26.9042ZM13.6243 3.22296C13.7838 3.07075 13.9958 2.98582 14.2163 2.98582C14.4367 2.98582 14.6487 3.07075 14.8082 3.22296L21.9121 10.3277C22.0689 10.4847 22.1569 10.6975 22.1569 10.9193C22.1569 11.141 22.0689 11.3538 21.9121 11.5108L20.1372 13.2849L11.8486 4.99622L13.6243 3.22296ZM23.4426 39.1161H20.5458C20.3685 39.1161 20.1958 39.1724 20.0526 39.2768C19.9094 39.3812 19.803 39.5284 19.7487 39.6972C19.6188 40.1159 19.4492 40.5213 19.2422 40.9078C19.1553 41.0665 19.1222 41.2492 19.1478 41.4284C19.1735 41.6076 19.2566 41.7736 19.3845 41.9016L21.4374 43.9553L19.0722 46.3214L17.0185 44.2676C16.8904 44.1395 16.7242 44.0563 16.5449 44.0307C16.3655 44.005 16.1828 44.0382 16.0239 44.1253C15.6376 44.3329 15.2322 44.5025 14.8132 44.6318C14.6446 44.6863 14.4976 44.7927 14.3933 44.9359C14.2891 45.0791 14.2329 45.2517 14.233 45.4289V48.3257H10.8841V45.4289C10.8842 45.2517 10.828 45.0791 10.7237 44.9359C10.6195 44.7927 10.4725 44.6863 10.3039 44.6318C9.88491 44.5025 9.47944 44.3329 9.09322 44.1253C8.93432 44.0382 8.75155 44.005 8.57221 44.0307C8.39287 44.0563 8.22668 44.1395 8.09859 44.2676L6.04485 46.3214L3.68384 43.9553L5.73674 41.9016C5.8647 41.7736 5.94773 41.6076 5.97339 41.4284C5.99905 41.2492 5.96595 41.0665 5.87907 40.9078C5.67352 40.5212 5.50531 40.1158 5.37673 39.6972C5.32206 39.527 5.21439 39.3788 5.06947 39.2744C4.92456 39.1698 4.74999 39.1144 4.57131 39.1161H1.67447V35.7672H4.57131C4.74857 35.7672 4.92125 35.7109 5.06448 35.6065C5.20772 35.5021 5.31411 35.3549 5.36836 35.1861C5.49693 34.7675 5.66514 34.3621 5.8707 33.9755C5.95758 33.8167 5.99068 33.6341 5.96502 33.4549C5.93935 33.2757 5.85633 33.1097 5.72837 32.9817L3.68384 30.9279L6.04485 28.5619L8.09859 30.6157C8.22668 30.7438 8.39287 30.827 8.57221 30.8526C8.75155 30.8783 8.93432 30.8451 9.09322 30.758C9.47944 30.5504 9.88491 30.3808 10.3039 30.2515C10.4725 30.197 10.6195 30.0906 10.7237 29.9474C10.828 29.8041 10.8842 29.6316 10.8841 29.4544V26.5576H14.233V29.4544C14.2329 29.6316 14.2891 29.8041 14.3933 29.9474C14.4976 30.0906 14.6446 30.197 14.8132 30.2515C15.2322 30.3808 15.6376 30.5504 16.0239 30.758C16.1828 30.8451 16.3655 30.8783 16.5449 30.8526C16.7242 30.827 16.8904 30.7438 17.0185 30.6157L19.0722 28.5619L21.4374 30.9279L19.3845 32.9817C19.2566 33.1097 19.1735 33.2757 19.1478 33.4549C19.1222 33.6341 19.1553 33.8167 19.2422 33.9755C19.4492 34.362 19.6188 34.7673 19.7487 35.1861C19.803 35.3549 19.9094 35.5021 20.0526 35.6065C20.1958 35.7109 20.3685 35.7672 20.5458 35.7672H23.4426V39.1161ZM25.1171 39.4987V34.9299C25.1171 34.7079 25.0288 34.4949 24.8719 34.3379C24.7149 34.1809 24.5019 34.0927 24.2799 34.0927H21.1377C21.09 33.9721 21.0423 33.8558 20.992 33.7419L23.2141 31.5199C23.371 31.3629 23.4592 31.15 23.4592 30.9279C23.4592 30.7059 23.371 30.493 23.2141 30.336L19.6642 26.7861C19.5072 26.6292 19.2943 26.541 19.0722 26.541C18.8502 26.541 18.6373 26.6292 18.4803 26.7861L16.2583 29.0082C16.1444 28.9588 16.0281 28.9102 15.9075 28.8625V25.7203C15.9075 25.4983 15.8192 25.2853 15.6623 25.1283C15.5053 24.9713 15.2923 24.8831 15.0703 24.8831H10.5023C8.27198 22.2723 7.0615 18.9429 7.09441 15.5093C7.12739 12.0758 8.4015 8.77015 10.6815 6.20268L18.9508 14.4721L18.3648 15.0632C17.8188 15.6064 17.3855 16.2522 17.0899 16.9634C16.7943 17.6747 16.6421 18.4373 16.6421 19.2075C16.6421 19.9776 16.7943 20.7403 17.0899 21.4515C17.3855 22.1628 17.8188 22.8085 18.3648 23.3518L26.6534 31.6404C27.1961 32.1861 27.8413 32.6192 28.5519 32.9149C29.2624 33.2105 30.0243 33.3629 30.794 33.3633C31.5636 33.3637 32.3256 33.2121 33.0365 32.9171C33.7473 32.6222 34.3929 32.1897 34.9362 31.6446L35.5315 31.0535L43.8017 39.3229C41.2334 41.6032 37.9267 42.8772 34.4923 42.9096C31.0579 42.9419 27.7278 41.7303 25.1171 39.4987ZM46.7764 36.3767L45.0023 38.1508L36.7136 29.8621L38.4886 28.0889C38.6456 27.9319 38.8585 27.8437 39.0805 27.8437C39.3026 27.8437 39.5155 27.9319 39.6724 28.0889L46.7764 35.1928C46.9334 35.3498 47.0215 35.5627 47.0215 35.7848C47.0215 36.0068 46.9334 36.2197 46.7764 36.3767Z" fill="white"/>
<path id="Vector_2" d="M12.5583 33.2554C11.7303 33.2554 10.921 33.5009 10.2326 33.9608C9.54412 34.4209 9.00754 35.0746 8.69073 35.8396C8.37392 36.6045 8.29095 37.4462 8.45254 38.2583C8.61404 39.0703 9.01273 39.8162 9.59821 40.4016C10.1836 40.9871 10.9295 41.3858 11.7416 41.5473C12.5537 41.7089 13.3953 41.6259 14.1602 41.3091C14.9252 40.9923 15.5789 40.4557 16.039 39.7672C16.499 39.0789 16.7444 38.2695 16.7444 37.4416C16.7431 36.3317 16.3016 35.2678 15.5169 34.4829C14.7321 33.6982 13.6681 33.2567 12.5583 33.2554ZM12.5583 39.9533C12.0615 39.9533 11.5758 39.8059 11.1628 39.53C10.7497 39.254 10.4278 38.8617 10.2378 38.4027C10.0476 37.9438 9.99791 37.4388 10.0948 36.9515C10.1917 36.4643 10.4309 36.0167 10.7822 35.6655C11.1335 35.3142 11.581 35.075 12.0682 34.9781C12.5555 34.8812 13.0605 34.9309 13.5195 35.1211C13.9784 35.3111 14.3707 35.633 14.6467 36.0461C14.9227 36.4591 15.07 36.9448 15.07 37.4416C15.07 38.1077 14.8053 38.7466 14.3343 39.2176C13.8633 39.6886 13.2244 39.9533 12.5583 39.9533Z" fill="white"/>
<path id="Vector_3" d="M28.5803 0.00777998C28.3602 -0.0224191 28.1372 0.0360366 27.9602 0.170279C27.7833 0.304522 27.6669 0.503566 27.6367 0.723617C27.6065 0.943668 27.6649 1.1667 27.7992 1.34366C27.9334 1.52061 28.1325 1.63698 28.3525 1.66718C33.4022 2.37321 38.0842 4.7055 41.6895 8.31082C45.2948 11.9162 47.6271 16.5982 48.3332 21.6478C48.3606 21.8482 48.4598 22.0318 48.6121 22.1647C48.7644 22.2977 48.9599 22.371 49.162 22.3712C49.2001 22.3712 49.2381 22.3687 49.2759 22.3637C49.3848 22.3488 49.4898 22.3125 49.5848 22.257C49.6797 22.2015 49.7628 22.1278 49.8293 22.0402C49.8958 21.9526 49.9444 21.8527 49.9722 21.7463C50.0001 21.6399 50.0067 21.529 49.9917 21.4201C49.2351 16.0088 46.7357 10.9915 42.8722 7.1278C39.0087 3.26417 33.9915 0.764658 28.5803 0.00777998Z" fill="white"/>
<path id="Vector_4" d="M28.3213 6.7528C32.0389 7.41112 35.4645 9.19586 38.1341 11.8655C40.8037 14.5352 42.5884 17.9606 43.2468 21.6782C43.2807 21.8724 43.382 22.0483 43.5328 22.1751C43.6836 22.3019 43.8743 22.3714 44.0714 22.3714C44.12 22.3714 44.1685 22.3672 44.2163 22.3589C44.435 22.3207 44.6295 22.1971 44.7572 22.0155C44.8849 21.8339 44.9351 21.6089 44.897 21.3902C44.1794 17.3333 42.2322 13.595 39.3191 10.6819C36.406 7.76862 32.6679 5.82119 28.611 5.10344C28.5028 5.08442 28.3918 5.08692 28.2844 5.11079C28.1771 5.13467 28.0755 5.17944 27.9854 5.24257C27.8954 5.3057 27.8188 5.38594 27.7597 5.47872C27.7007 5.57149 27.6605 5.67498 27.6415 5.78328C27.6225 5.89158 27.625 6.00256 27.6489 6.1099C27.6727 6.21723 27.7175 6.31881 27.7807 6.40884C27.8438 6.49887 27.924 6.57556 28.0168 6.63458C28.1096 6.69361 28.2131 6.7338 28.3213 6.7528Z" fill="white"/>
<path id="Vector_5" d="M28.2702 11.8657C30.6567 12.4562 32.8368 13.687 34.5751 15.4255C36.3135 17.164 37.5442 19.3442 38.1345 21.7308C38.1574 21.8406 38.2022 21.9446 38.2662 22.0368C38.33 22.1289 38.4118 22.2072 38.5067 22.2671C38.6015 22.327 38.7073 22.3672 38.818 22.3855C38.9286 22.4036 39.0418 22.3994 39.1508 22.3731C39.2598 22.3467 39.3624 22.2987 39.4524 22.232C39.5425 22.1652 39.6183 22.081 39.6752 21.9844C39.7322 21.8878 39.7691 21.7807 39.7839 21.6696C39.7986 21.5584 39.7909 21.4454 39.7612 21.3373C39.0975 18.6518 37.7128 16.1986 35.7567 14.2425C33.8007 12.2865 31.3475 10.9018 28.662 10.2381C28.5541 10.2097 28.4418 10.2031 28.3314 10.2187C28.2211 10.2342 28.1149 10.2717 28.0192 10.3289C27.9235 10.386 27.8402 10.4617 27.7742 10.5515C27.7081 10.6413 27.6607 10.7434 27.6346 10.8517C27.6085 10.9601 27.6043 11.0726 27.6223 11.1826C27.6402 11.2926 27.68 11.3979 27.7392 11.4924C27.7984 11.5868 27.8758 11.6684 27.967 11.7326C28.0582 11.7967 28.1612 11.8419 28.2702 11.8657Z" fill="white"/>
<path id="Vector_6" d="M30.1409 23.2086C30.8033 23.2086 31.4508 23.0122 32.0015 22.6443C32.5523 22.2763 32.9815 21.7532 33.2349 21.1412C33.4885 20.5293 33.5548 19.856 33.4255 19.2063C33.2963 18.5567 32.9773 17.96 32.509 17.4917C32.0406 17.0233 31.4439 16.7043 30.7943 16.5751C30.1446 16.4459 29.4713 16.5122 28.8594 16.7657C28.2474 17.0191 27.7243 17.4484 27.3564 17.9991C26.9884 18.5498 26.792 19.1974 26.792 19.8597C26.792 20.7479 27.1448 21.5997 27.7729 22.2277C28.4009 22.8558 29.2527 23.2086 30.1409 23.2086ZM30.1409 18.1852C30.4721 18.1852 30.7958 18.2834 31.0712 18.4674C31.3466 18.6514 31.5612 18.9129 31.688 19.2189C31.8147 19.5249 31.8478 19.8615 31.7833 20.1864C31.7186 20.5111 31.5591 20.8095 31.325 21.0437C31.0908 21.2779 30.7924 21.4374 30.4676 21.502C30.1428 21.5666 29.8061 21.5334 29.5001 21.4067C29.1942 21.28 28.9326 21.0653 28.7487 20.7899C28.5647 20.5146 28.4665 20.1909 28.4665 19.8597C28.4665 19.4156 28.6429 18.9897 28.9569 18.6757C29.271 18.3616 29.6969 18.1852 30.1409 18.1852Z" fill="white"/>
</g>
</svg>
