<svg width="24" height="25" viewBox="0 0 24 25" fill="none" xmlns="http://www.w3.org/2000/svg">
<path d="M18.1399 22.1198C17.2599 22.3798 16.2199 22.4998 14.9999 22.4998H8.99986C7.77986 22.4998 6.73986 22.3798 5.85986 22.1198C6.07986 19.5198 8.74986 17.4697 11.9999 17.4697C15.2499 17.4697 17.9199 19.5198 18.1399 22.1198Z" stroke="#0E0C0C" stroke-width="1.5" stroke-linecap="round" stroke-linejoin="round"/>
<path d="M15 2.5H9C4 2.5 2 4.5 2 9.5V15.5C2 19.28 3.14 21.35 5.86 22.12C6.08 19.52 8.75 17.47 12 17.47C15.25 17.47 17.92 19.52 18.14 22.12C20.86 21.35 22 19.28 22 15.5V9.5C22 4.5 20 2.5 15 2.5ZM12 14.67C10.02 14.67 8.42 13.06 8.42 11.08C8.42 9.10002 10.02 7.5 12 7.5C13.98 7.5 15.58 9.10002 15.58 11.08C15.58 13.06 13.98 14.67 12 14.67Z" stroke="#0E0C0C" stroke-width="1.5" stroke-linecap="round" stroke-linejoin="round"/>
<path d="M15.5799 11.08C15.5799 13.06 13.9799 14.67 11.9999 14.67C10.0199 14.67 8.41992 13.06 8.41992 11.08C8.41992 9.10002 10.0199 7.5 11.9999 7.5C13.9799 7.5 15.5799 9.10002 15.5799 11.08Z" stroke="#0E0C0C" stroke-width="1.5" stroke-linecap="round" stroke-linejoin="round"/>
</svg>
