<svg width="78" height="58" viewBox="0 0 78 78" fill="none" xmlns="http://www.w3.org/2000/svg">
<g clip-path="url(#clip0_379_6958)">
<path d="M48.7506 73.9383C47.8731 73.9383 47.0606 73.4508 46.6381 72.7033C46.2156 71.9233 46.2156 71.0133 46.6706 70.2333L50.0831 64.5458C50.7656 63.3758 52.2931 63.0183 53.4306 63.7008C54.6006 64.3833 54.9581 65.8783 54.2756 67.0483L53.3981 68.5108C62.3681 66.3983 69.0956 58.3383 69.0956 48.7183C69.0956 47.3858 70.2006 46.2808 71.5331 46.2808C72.8656 46.2808 73.9706 47.3858 73.9706 48.7183C73.9381 62.6283 62.6281 73.9383 48.7506 73.9383Z" fill="#CFB9F0"/>
<path d="M6.5 31.6875C5.1675 31.6875 4.0625 30.5825 4.0625 29.25C4.0625 15.3725 15.3725 4.0625 29.25 4.0625C30.1275 4.0625 30.94 4.55 31.3625 5.2975C31.785 6.0775 31.785 6.9875 31.33 7.7675L27.9175 13.455C27.235 14.5925 25.74 14.9825 24.57 14.2675C23.4325 13.585 23.0425 12.09 23.7575 10.92L24.635 9.4575C15.6325 11.57 8.9375 19.63 8.9375 29.25C8.9375 30.5825 7.8325 31.6875 6.5 31.6875Z" fill="#CFB9F0"/>
<path d="M48.1 41.0479V50.6029C48.1 58.5654 44.915 61.7504 36.9525 61.7504H27.3975C19.435 61.7504 16.25 58.5654 16.25 50.6029V41.0479C16.25 33.0854 19.435 29.9004 27.3975 29.9004H36.9525C44.915 29.9004 48.1 33.0854 48.1 41.0479Z" fill="#CFB9F0"/>
<path d="M50.6015 16.25H41.0465C33.214 16.25 30.0289 19.37 29.9314 27.04H36.9515C46.5065 27.04 50.9265 31.4925 50.9265 41.015V48.035C58.629 47.9375 61.7165 44.7525 61.7165 36.92V27.3975C61.749 19.435 58.564 16.25 50.6015 16.25Z" fill="#CFB9F0"/>
</g>
<defs>
<clipPath id="clip0_379_6958">
<rect width="78" height="75" fill="white"/>
</clipPath>
</defs>
</svg>
