<svg width="18" height="18" viewBox="0 0 25 24" fill="none" xmlns="http://www.w3.org/2000/svg">
<g id="vuesax/linear/group">
<g id="group">
<path id="Vector" d="M15.4 2H9.60001C8.92001 2 7.96 2.4 7.48 2.88L3.38 6.98001C2.9 7.46001 2.5 8.42001 2.5 9.10001V14.9C2.5 15.58 2.9 16.54 3.38 17.02L7.48 21.12C7.96 21.6 8.92001 22 9.60001 22H15.4C16.08 22 17.04 21.6 17.52 21.12L21.62 17.02C22.1 16.54 22.5 15.58 22.5 14.9V9.10001C22.5 8.42001 22.1 7.46001 21.62 6.98001L17.52 2.88C17.04 2.4 16.08 2 15.4 2Z" stroke="#0E0C0C" stroke-width="1.5" stroke-linecap="round" stroke-linejoin="round"/>
<path id="Vector_2" d="M9 15.5L16 8.5" stroke="#0E0C0C" stroke-width="1.5" stroke-linecap="round" stroke-linejoin="round"/>
<path id="Vector_3" d="M16 15.5L9 8.5" stroke="#0E0C0C" stroke-width="1.5" stroke-linecap="round" stroke-linejoin="round"/>
</g>
</g>
</svg>
