<svg xmlns="http://www.w3.org/2000/svg" width="29" height="29" viewBox="0 0 29 29" fill="none">
  <path d="M15.7082 8.45817H13.2915V13.2915H8.45817V15.7082H13.2915V20.5415H15.7082V15.7082H20.5415V13.2915H15.7082V8.45817Z" fill="white"/>
  <path d="M14.4998 2.4165C7.83709 2.4165 2.4165 7.83709 2.4165 14.4998C2.4165 21.1626 7.83709 26.5832 14.4998 26.5832C21.1626 26.5832 26.5832 21.1626 26.5832 14.4998C26.5832 7.83709 21.1626 2.4165 14.4998 2.4165ZM14.4998 24.1665C9.16988 24.1665 4.83317 19.8298 4.83317 14.4998C4.83317 9.16988 9.16988 4.83317 14.4998 4.83317C19.8298 4.83317 24.1665 9.16988 24.1665 14.4998C24.1665 19.8298 19.8298 24.1665 14.4998 24.1665Z" fill="white"/>
</svg>