<svg xmlns="http://www.w3.org/2000/svg" width="41" height="42" viewBox="0 0 41 42" fill="none">
  <path d="M20.2837 5.48535C14.6981 5.48535 10.1587 10.0247 10.1587 15.6104V20.4872C10.1587 21.5166 9.72 23.086 9.19687 23.9635L7.25625 27.1866C6.05812 29.1779 6.885 31.3885 9.07875 32.131C16.3519 34.561 24.1987 34.561 31.4719 32.131C33.5137 31.456 34.4081 29.0429 33.2944 27.1866L31.3537 23.9635C30.8475 23.086 30.4087 21.5166 30.4087 20.4872V15.6104C30.4087 10.0416 25.8525 5.48535 20.2837 5.48535Z" stroke="#0E0C0C" stroke-width="2.53125" stroke-miterlimit="10" stroke-linecap="round"/>
  <path d="M23.4057 5.97439C22.8826 5.82252 22.3426 5.70439 21.7857 5.63689C20.1657 5.43439 18.6132 5.55252 17.162 5.97439C17.6514 4.72564 18.8664 3.84814 20.2839 3.84814C21.7014 3.84814 22.9164 4.72564 23.4057 5.97439Z" stroke="#0E0C0C" stroke-width="2.53125" stroke-miterlimit="10" stroke-linecap="round" stroke-linejoin="round"/>
  <path d="M25.3463 32.7388C25.3463 35.5231 23.0682 37.8013 20.2838 37.8013C18.9001 37.8013 17.6176 37.2275 16.7063 36.3163C15.7951 35.405 15.2213 34.1225 15.2213 32.7388" stroke="#0E0C0C" stroke-width="2.53125" stroke-miterlimit="10"/>
</svg>