<svg xmlns="http://www.w3.org/2000/svg" width="28" height="23" viewBox="0 0 30 30" fill="none">
  <path d="M3.74289 29.4858C2.86828 29.4858 2.1193 29.1746 1.49594 28.5523C0.873648 27.929 0.5625 27.18 0.5625 26.3054V4.04269C0.5625 3.16809 0.873648 2.4191 1.49594 1.79575C2.1193 1.17345 2.86828 0.862305 3.74289 0.862305H10.1037C10.9783 0.862305 11.7272 1.17345 12.3506 1.79575C12.9729 2.4191 13.284 3.16809 13.284 4.04269V26.3054C13.284 27.18 12.9729 27.929 12.3506 28.5523C11.7272 29.1746 10.9783 29.4858 10.1037 29.4858H3.74289ZM19.6448 11.9937C18.7702 11.9937 18.0218 11.682 17.3995 11.0586C16.7761 10.4363 16.4644 9.68788 16.4644 8.81327V4.04269C16.4644 3.16809 16.7761 2.4191 17.3995 1.79575C18.0218 1.17345 18.7702 0.862305 19.6448 0.862305H26.0056C26.8802 0.862305 27.6292 1.17345 28.2525 1.79575C28.8748 2.4191 29.186 3.16809 29.186 4.04269V8.81327C29.186 9.68788 28.8748 10.4363 28.2525 11.0586C27.6292 11.682 26.8802 11.9937 26.0056 11.9937H19.6448ZM19.6448 29.4858C18.7702 29.4858 18.0218 29.1746 17.3995 28.5523C16.7761 27.929 16.4644 27.18 16.4644 26.3054V18.3544C16.4644 17.4798 16.7761 16.7308 17.3995 16.1075C18.0218 15.4852 18.7702 15.174 19.6448 15.174H26.0056C26.8802 15.174 27.6292 15.4852 28.2525 16.1075C28.8748 16.7308 29.186 17.4798 29.186 18.3544V26.3054C29.186 27.18 28.8748 27.929 28.2525 28.5523C27.6292 29.1746 26.8802 29.4858 26.0056 29.4858H19.6448Z" fill="black"/>
</svg>
