<svg width="35" height="36" viewBox="0 0 35 36" fill="none" xmlns="http://www.w3.org/2000/svg">
<path d="M6.03677 26.6499V11.0501L3.81845 6.25567C3.65148 5.89788 3.63955 5.53412 3.78267 5.1644C3.92578 4.79468 4.17624 4.52633 4.53403 4.35936C4.89183 4.19239 5.25558 4.1745 5.6253 4.30569C5.99502 4.43689 6.26337 4.68138 6.43034 5.03917L9.18535 10.9785H25.787L28.542 5.03917C28.709 4.68138 28.9773 4.43092 29.347 4.2878C29.7167 4.14469 30.0805 4.16854 30.4383 4.35936C30.7961 4.52633 31.0465 4.79468 31.1897 5.1644C31.3328 5.53412 31.3208 5.89788 31.1539 6.25567L28.9356 11.0501V26.6499C28.9356 27.437 28.6553 28.1109 28.0947 28.6714C27.5342 29.232 26.8603 29.5122 26.0732 29.5122H8.89911C8.11197 29.5122 7.43812 29.232 6.87758 28.6714C6.31704 28.1109 6.03677 27.437 6.03677 26.6499ZM14.6238 19.494H20.3485C20.754 19.494 21.0939 19.3569 21.3682 19.0826C21.6425 18.8083 21.7797 18.4684 21.7797 18.0629C21.7797 17.6574 21.6425 17.3175 21.3682 17.0431C21.0939 16.7688 20.754 16.6317 20.3485 16.6317H14.6238C14.2183 16.6317 13.8784 16.7688 13.6041 17.0431C13.3298 17.3175 13.1926 17.6574 13.1926 18.0629C13.1926 18.4684 13.3298 18.8083 13.6041 19.0826C13.8784 19.3569 14.2183 19.494 14.6238 19.494Z" fill="black"/>
</svg>
