<svg width="35" height="35" viewBox="0 0 35 35" fill="none" xmlns="http://www.w3.org/2000/svg">
<path d="M20.5873 34.4839C19.8974 34.4839 19.311 34.2335 18.8281 33.7326C18.3452 33.2316 18.1037 32.6234 18.1037 31.9078V23.3208C18.1037 22.8055 18.2279 22.3476 18.4762 21.9468C18.7246 21.5461 19.0557 21.2312 19.4697 21.0023L20.5873 23.3208H23.0708L21.829 20.7446H24.3126L25.5543 23.3208H28.0379L26.7961 20.7446H29.2797L30.5214 23.3208H33.005L31.7632 20.7446H32.1771C32.867 20.7446 33.4534 20.9951 33.9363 21.496C34.4192 21.9969 34.6607 22.6052 34.6607 23.3208V31.9078C34.6607 32.6234 34.4192 33.2316 33.9363 33.7326C33.4534 34.2335 32.867 34.4839 32.1771 34.4839H20.5873ZM20.5873 31.9078H32.1771V25.8969H20.5873V31.9078ZM14.7923 34.4839H13.3436C12.9297 34.4839 12.5709 34.3408 12.2674 34.0546C11.9638 33.7683 11.7845 33.4105 11.7293 32.9812L11.2326 28.9882C10.8738 28.8451 10.5358 28.6734 10.2185 28.473C9.90112 28.2726 9.59067 28.0579 9.28713 27.829L5.68599 29.3746C5.29966 29.5464 4.91333 29.5678 4.527 29.439C4.14067 29.3102 3.83713 29.0598 3.61637 28.6877L0.553329 23.149C0.332569 22.7769 0.263582 22.3762 0.346367 21.9468C0.429151 21.5175 0.636113 21.174 0.967253 20.9164L4.07168 18.4691C4.04409 18.2687 4.03029 18.0755 4.03029 17.8895V16.7302C4.03029 16.5442 4.04409 16.3509 4.07168 16.1506L0.967253 13.7033C0.636113 13.4457 0.429151 13.1022 0.346367 12.6728C0.263582 12.2435 0.332569 11.8427 0.553329 11.4706L3.61637 5.932C3.83713 5.55989 4.14067 5.30944 4.527 5.18063C4.91333 5.05183 5.29966 5.07329 5.68599 5.24503L9.28713 6.7907C9.59067 6.56171 9.90801 6.34704 10.2392 6.14667C10.5703 5.94631 10.9014 5.77457 11.2326 5.63145L11.7293 1.63847C11.7845 1.20912 11.9638 0.851329 12.2674 0.565094C12.5709 0.27886 12.9297 0.135742 13.3436 0.135742H19.5524C19.9664 0.135742 20.3251 0.27886 20.6287 0.565094C20.9322 0.851329 21.1116 1.20912 21.1668 1.63847L21.6635 5.63145C22.0222 5.77457 22.3602 5.94631 22.6776 6.14667C22.9949 6.34704 23.3054 6.56171 23.6089 6.7907L27.21 5.24503C27.5964 5.07329 27.9827 5.05183 28.369 5.18063C28.7554 5.30944 29.0589 5.55989 29.2797 5.932L32.3427 11.4706C32.5635 11.8427 32.6325 12.2435 32.5497 12.6728C32.4669 13.1022 32.2599 13.4457 31.9288 13.7033L28.8243 16.1506C28.8519 16.3509 28.8657 16.5442 28.8657 16.7302V17.3098H22.3257C22.3257 15.6497 21.76 14.2328 20.6287 13.0592C19.4973 11.8857 18.1313 11.2989 16.5308 11.2989C14.9303 11.2989 13.5643 11.8857 12.433 13.0592C11.3016 14.2328 10.7359 15.6497 10.7359 17.3098C10.7359 18.6838 11.1084 19.8859 11.8535 20.9164C12.5985 21.9468 13.5781 22.6624 14.7923 23.0632V34.4839Z" fill="black"/>
</svg>
