<svg xmlns="http://www.w3.org/2000/svg" width="27" height="31" viewBox="0 0 27 31" fill="none">
  <path d="M8.221 26.1179L0.668471 21.9651C0.434225 21.8361 0.303661 21.6021 0.302701 21.3616H0.300781V7.73564C0.300781 7.4586 0.469746 7.21997 0.713593 7.10659L6.86256 3.72547L6.90384 3.70444L13.0605 0.318748C13.2986 0.188916 13.5799 0.199888 13.7997 0.324234L19.9861 3.72547L19.9871 3.72456L26.1735 7.12579C26.209 7.14499 26.2426 7.16602 26.2753 7.19071L26.2849 7.19802L26.2945 7.20534L26.2983 7.20899L26.3031 7.21357L26.3117 7.22088L26.3127 7.22179L26.3213 7.23002L26.3252 7.23368L26.3261 7.23459L26.3377 7.24557L26.3386 7.24648C26.3473 7.25471 26.3549 7.26294 26.3626 7.27117L26.3636 7.27208C26.4135 7.32511 26.4529 7.38454 26.4826 7.44763L26.4836 7.44946L26.4855 7.4522L26.4903 7.46226L26.4922 7.46592L26.4951 7.47323L26.4999 7.48329L26.5037 7.49334C26.5325 7.5674 26.5479 7.64512 26.5489 7.72192V7.72375V7.73198V7.73472H26.5508V21.3607C26.5508 21.6368 26.3818 21.8764 26.138 21.9897L18.6315 26.1169C18.404 27.0642 17.899 27.9117 17.202 28.5755C16.2363 29.4953 14.9009 30.0649 13.4263 30.0649C11.9517 30.0649 10.6172 29.4953 9.65048 28.5755C8.9535 27.9117 8.44757 27.0642 8.22004 26.1169L8.221 26.1179ZM11.2412 25.721C10.9168 25.4906 10.8496 25.0527 11.0915 24.7427C11.3334 24.4337 11.7933 24.3697 12.1187 24.6001L12.9011 25.1569L14.6388 23.3941C14.9162 23.1134 15.3799 23.0997 15.6746 23.364C15.9694 23.6282 15.9838 24.0698 15.7063 24.3505L13.5501 26.5384C13.3024 26.821 12.8618 26.8731 12.5488 26.65L11.2422 25.721H11.2412ZM18.7371 24.4492L25.0819 20.9602V8.94527L14.1607 14.9505V18.1359C14.1607 18.5218 13.8314 18.8354 13.4263 18.8354C13.0211 18.8354 12.6918 18.5218 12.6918 18.1359V14.9505L1.77058 8.94527V20.9602L8.1154 24.4492C8.24596 23.2579 8.80758 22.1881 9.65048 21.3863C10.6163 20.4656 11.9517 19.896 13.4263 19.896C14.9009 19.896 16.2353 20.4656 17.202 21.3863C18.0449 22.1891 18.6066 23.2579 18.7371 24.4492ZM16.1633 22.3747C15.4625 21.7072 14.4948 21.2949 13.4263 21.2949C12.3578 21.2949 11.3891 21.7072 10.6892 22.3747C9.98841 23.0421 9.55544 23.9637 9.55544 24.9814C9.55544 25.999 9.98841 26.9206 10.6892 27.5881C11.39 28.2555 12.3578 28.6679 13.4263 28.6679C14.4948 28.6679 15.4634 28.2546 16.1633 27.5881C16.8641 26.9206 17.2971 25.9999 17.2971 24.9814C17.2971 23.9637 16.8641 23.0412 16.1633 22.3747ZM24.3514 7.73564L19.2546 4.93327L19.2555 4.93236L13.4263 1.72679L7.63634 4.91042L7.59794 4.93236L2.50116 7.73472L13.4263 13.7417L24.3514 7.73472V7.73564Z" fill="#007B40"/>
</svg>